<?xml version="1.0" encoding="UTF-8" standalone="no"?>
<svg
   height="19"
   viewBox="0 -960 435.99998 760"
   width="10.9"
   version="1.1"
   id="svg4"
   sodipodi:docname="question-mark.svg"
   inkscape:version="1.2.2 (732a01da63, 2022-12-09)"
   xmlns:inkscape="http://www.inkscape.org/namespaces/inkscape"
   xmlns:sodipodi="http://sodipodi.sourceforge.net/DTD/sodipodi-0.dtd"
   xmlns="http://www.w3.org/2000/svg"
   xmlns:svg="http://www.w3.org/2000/svg">
  <defs
     id="defs8" />
  <sodipodi:namedview
     id="namedview6"
     pagecolor="#ffffff"
     bordercolor="#000000"
     borderopacity="0.25"
     inkscape:showpageshadow="2"
     inkscape:pageopacity="0.0"
     inkscape:pagecheckerboard="0"
     inkscape:deskcolor="#d1d1d1"
     showgrid="false"
     inkscape:zoom="23.688077"
     inkscape:cx="4.664794"
     inkscape:cy="12.516845"
     inkscape:window-width="1920"
     inkscape:window-height="991"
     inkscape:window-x="-9"
     inkscape:window-y="-9"
     inkscape:window-maximized="1"
     inkscape:current-layer="svg4" />
  <path
     d="m 162,-440 q 0,-81 14.5,-116.5 14.5,-35.5 61.5,-77.5 41,-36 62.5,-62.5 21.5,-26.5 21.5,-60.5 0,-41 -27.5,-68 -27.5,-27 -76.5,-27 -51,0 -77.5,31 -26.5,31 -37.5,63 L 0,-802 q 21,-64 77,-111 56,-47 141,-47 105,0 161.5,58.5 56.5,58.5 56.5,140.5 0,50 -21.5,85.5 Q 393,-640 347,-595 298,-548 287.5,-523.5 277,-499 277,-440 Z m 56,240 q -33,0 -56.5,-23.5 Q 138,-247 138,-280 q 0,-33 23.5,-56.5 23.5,-23.5 56.5,-23.5 33,0 56.5,23.5 23.5,23.5 23.5,56.5 0,33 -23.5,56.5 Q 251,-200 218,-200 Z"
     id="path2"
     style="fill:#ffffff" />
</svg>
